<svg width="38" height="58" viewBox="0 0 38 58" fill="none" xmlns="http://www.w3.org/2000/svg">
<path d="M16.2666 2.8C12.4 5.46666 9.33329 11.6 9.33329 16.5333C9.33329 20 8.79996 20.5333 5.06663 20.9333C0.666626 21.3333 0.666626 21.3333 0.666626 28.6667C0.666626 36 0.666626 36 5.06663 36.4L9.33329 36.8V46.6667C9.33329 56 9.46663 56.6667 12.5333 57.4667C14.2666 57.8667 17.6 58 20.1333 57.7333L24.6666 57.3333L25.0666 47.0667L25.4666 36.8L29.7333 36.4C33.4666 36 34.2666 35.3333 35.8666 30.2667C38.2666 22.5333 37.2 20.6667 30.6666 20.6667C26.1333 20.6667 25.2 20.2667 25.6 18.2667C25.8666 16.8 27.6 15.7333 30.6666 15.3333C35.2 14.6667 35.3333 14.5333 35.7333 7.6L36.1333 0.666664H27.7333C22.2666 0.666664 18.2666 1.33333 16.2666 2.8Z" fill="white"/>
</svg>
